<svg width="20" height="20" viewBox="0 0 20 20" fill="none" xmlns="http://www.w3.org/2000/svg">
<path d="M13.3334 17.5V15.8333C13.3334 14.9493 12.9822 14.1014 12.3571 13.4763C11.732 12.8512 10.8841 12.5 10.0001 12.5H5.00008C4.11603 12.5 3.26818 12.8512 2.64306 13.4763C2.01794 14.1014 1.66675 14.9493 1.66675 15.8333V17.5" stroke="#92278F" stroke-width="1.66667" stroke-linecap="round" stroke-linejoin="round"/>
<path d="M7.50008 9.16667C9.34103 9.16667 10.8334 7.67428 10.8334 5.83333C10.8334 3.99238 9.34103 2.5 7.50008 2.5C5.65913 2.5 4.16675 3.99238 4.16675 5.83333C4.16675 7.67428 5.65913 9.16667 7.50008 9.16667Z" stroke="#92278F" stroke-width="1.66667" stroke-linecap="round" stroke-linejoin="round"/>
<path d="M18.3335 17.5V15.8333C18.3329 15.0948 18.0871 14.3773 17.6346 13.7936C17.1821 13.2099 16.5486 12.793 15.8335 12.6083" stroke="#92278F" stroke-width="1.66667" stroke-linecap="round" stroke-linejoin="round"/>
<path d="M13.3335 2.60834C14.0505 2.79192 14.686 3.20892 15.1399 3.7936C15.5937 4.37827 15.84 5.09736 15.84 5.8375C15.84 6.57765 15.5937 7.29674 15.1399 7.88141C14.686 8.46609 14.0505 8.88309 13.3335 9.06667" stroke="#92278F" stroke-width="1.66667" stroke-linecap="round" stroke-linejoin="round"/>
</svg>
