<svg width="20" height="20" viewBox="0 0 20 20" fill="none" xmlns="http://www.w3.org/2000/svg">
<path d="M16.6666 8.33332C16.6666 12.4942 12.0508 16.8275 10.5008 18.1658C10.3564 18.2744 10.1806 18.3331 9.99992 18.3331C9.81925 18.3331 9.64348 18.2744 9.49909 18.1658C7.94909 16.8275 3.33325 12.4942 3.33325 8.33332C3.33325 6.56521 4.03563 4.86952 5.28587 3.61928C6.53612 2.36904 8.23181 1.66666 9.99992 1.66666C11.768 1.66666 13.4637 2.36904 14.714 3.61928C15.9642 4.86952 16.6666 6.56521 16.6666 8.33332Z" stroke="#01A490" stroke-width="1.66667" stroke-linecap="round" stroke-linejoin="round"/>
<path d="M10 10.8333C11.3807 10.8333 12.5 9.71406 12.5 8.33334C12.5 6.95263 11.3807 5.83334 10 5.83334C8.61929 5.83334 7.5 6.95263 7.5 8.33334C7.5 9.71406 8.61929 10.8333 10 10.8333Z" stroke="#01A490" stroke-width="1.66667" stroke-linecap="round" stroke-linejoin="round"/>
</svg>
