<svg width="24" height="24" viewBox="0 0 24 24" fill="none" xmlns="http://www.w3.org/2000/svg">
<path d="M16.2403 7.76001L14.4363 13.171C14.3381 13.4656 14.1726 13.7333 13.9531 13.9528C13.7335 14.1724 13.4658 14.3378 13.1713 14.436L7.76025 16.24L9.56425 10.829C9.66244 10.5344 9.82786 10.2668 10.0474 10.0472C10.267 9.82762 10.5347 9.66219 10.8293 9.56401L16.2403 7.76001Z" stroke="#92278F" stroke-width="2" stroke-linecap="round" stroke-linejoin="round"/>
<path d="M12 22C17.5228 22 22 17.5228 22 12C22 6.47715 17.5228 2 12 2C6.47715 2 2 6.47715 2 12C2 17.5228 6.47715 22 12 22Z" stroke="#92278F" stroke-width="2" stroke-linecap="round" stroke-linejoin="round"/>
</svg>
