<svg width="56" height="56" viewBox="0 0 56 56" fill="none" xmlns="http://www.w3.org/2000/svg">
<path d="M0 12C0 5.37258 5.37258 0 12 0H44C50.6274 0 56 5.37258 56 12V44C56 50.6274 50.6274 56 44 56H12C5.37258 56 0 50.6274 0 44V12Z" fill="#01A490"/>
<path d="M30.5358 37.6859C30.5738 37.7806 30.6398 37.8614 30.7251 37.9175C30.8103 37.9735 30.9107 38.0022 31.0126 37.9996C31.1146 37.997 31.2134 37.9632 31.2956 37.9029C31.3779 37.8425 31.4397 37.7584 31.4728 37.6619L37.9728 18.6619C38.0048 18.5733 38.0109 18.4774 37.9904 18.3855C37.9699 18.2935 37.9236 18.2093 37.857 18.1427C37.7904 18.0761 37.7062 18.0298 37.6143 18.0093C37.5223 17.9888 37.4264 17.9949 37.3378 18.0269L18.3378 24.5269C18.2413 24.56 18.1572 24.6219 18.0969 24.7041C18.0365 24.7864 18.0028 24.8851 18.0002 24.9871C17.9976 25.0891 18.0262 25.1894 18.0823 25.2747C18.1383 25.3599 18.2191 25.4259 18.3138 25.4639L26.2438 28.6439C26.4945 28.7443 26.7223 28.8944 26.9134 29.0852C27.1045 29.2759 27.255 29.5034 27.3558 29.7539L30.5358 37.6859Z" stroke="white" stroke-width="2" stroke-linecap="round" stroke-linejoin="round"/>
<path d="M37.8541 18.147L26.9141 29.086" stroke="white" stroke-width="2" stroke-linecap="round" stroke-linejoin="round"/>
</svg>
