<svg width="40" height="40" viewBox="0 0 40 40" fill="none" xmlns="http://www.w3.org/2000/svg">
<rect width="40" height="40" rx="8" fill="url(#paint0_linear_5_424)"/>
<path d="M17.9369 23.5C17.8477 23.1539 17.6673 22.8381 17.4146 22.5854C17.1618 22.3327 16.846 22.1523 16.4999 22.063L10.3649 20.481C10.2603 20.4513 10.1681 20.3882 10.1026 20.3014C10.037 20.2146 10.0015 20.1088 10.0015 20C10.0015 19.8912 10.037 19.7854 10.1026 19.6986C10.1681 19.6117 10.2603 19.5487 10.3649 19.519L16.4999 17.936C16.8459 17.8468 17.1616 17.6666 17.4143 17.414C17.6671 17.1615 17.8475 16.8459 17.9369 16.5L19.5189 10.365C19.5483 10.2599 19.6113 10.1673 19.6983 10.1014C19.7852 10.0354 19.8913 9.99975 20.0004 9.99975C20.1096 9.99975 20.2157 10.0354 20.3026 10.1014C20.3896 10.1673 20.4525 10.2599 20.4819 10.365L22.0629 16.5C22.1522 16.8461 22.3326 17.1619 22.5853 17.4146C22.838 17.6673 23.1539 17.8477 23.4999 17.937L29.6349 19.518C29.7404 19.5471 29.8335 19.61 29.8998 19.6971C29.9661 19.7841 30.002 19.8906 30.002 20C30.002 20.1094 29.9661 20.2159 29.8998 20.3029C29.8335 20.39 29.7404 20.4529 29.6349 20.482L23.4999 22.063C23.1539 22.1523 22.838 22.3327 22.5853 22.5854C22.3326 22.8381 22.1522 23.1539 22.0629 23.5L20.4809 29.635C20.4515 29.7401 20.3886 29.8327 20.3016 29.8986C20.2147 29.9646 20.1086 30.0002 19.9994 30.0002C19.8903 30.0002 19.7842 29.9646 19.6973 29.8986C19.6103 29.8327 19.5473 29.7401 19.5179 29.635L17.9369 23.5Z" stroke="white" stroke-width="2" stroke-linecap="round" stroke-linejoin="round"/>
<path d="M28 11V15" stroke="white" stroke-width="2" stroke-linecap="round" stroke-linejoin="round"/>
<path d="M30 13H26" stroke="white" stroke-width="2" stroke-linecap="round" stroke-linejoin="round"/>
<path d="M12 25V27" stroke="white" stroke-width="2" stroke-linecap="round" stroke-linejoin="round"/>
<path d="M13 26H11" stroke="white" stroke-width="2" stroke-linecap="round" stroke-linejoin="round"/>
<defs>
<linearGradient id="paint0_linear_5_424" x1="20" y1="0" x2="20" y2="40" gradientUnits="userSpaceOnUse">
<stop stop-color="#00AEEF"/>
<stop offset="1" stop-color="#0060AF"/>
</linearGradient>
</defs>
</svg>
